<?xml version="1.0" encoding="UTF-8" standalone="no"?>
<!-- Created with Inkscape (http://www.inkscape.org/) -->
<svg xmlns:dc="http://purl.org/dc/elements/1.1/" xmlns:cc="http://creativecommons.org/ns#" xmlns:rdf="http://www.w3.org/1999/02/22-rdf-syntax-ns#" xmlns:svg="http://www.w3.org/2000/svg" xmlns="http://www.w3.org/2000/svg" xmlns:xlink="http://www.w3.org/1999/xlink" xmlns:sodipodi="http://sodipodi.sourceforge.net/DTD/sodipodi-0.dtd" xmlns:inkscape="http://www.inkscape.org/namespaces/inkscape" version="1.0" width="60" height="60" id="svg0" sodipodi:version="0.32" inkscape:version="0.46" sodipodi:docname="Gtk-dialog-info.svg" inkscape:output_extension="org.inkscape.output.svg.inkscape">
  <metadata id="metadata26">
    <rdf:RDF>
      <cc:Work rdf:about="">
        <dc:format>image/svg+xml</dc:format>
        <dc:type rdf:resource="http://purl.org/dc/dcmitype/StillImage"/>
      </cc:Work>
    </rdf:RDF>
  </metadata>
  <sodipodi:namedview inkscape:window-height="667" inkscape:window-width="640" inkscape:pageshadow="2" inkscape:pageopacity="0.0" guidetolerance="10.0" gridtolerance="10.0" objecttolerance="10.0" borderopacity="1.0" bordercolor="#666666" pagecolor="#ffffff" id="base" showgrid="false" inkscape:zoom="7.7" inkscape:cx="30" inkscape:cy="30" inkscape:window-x="22" inkscape:window-y="29" inkscape:current-layer="svg0"/>
  <defs id="defs0">
    <radialGradient cx="66.7061" cy="22.9419" r="59.340599" fx="66.7061" fy="22.9419" id="rg1" gradientUnits="userSpaceOnUse" spreadMethod="pad">
      <stop id="stop5" style="stop-color: rgb(0, 102, 204); stop-opacity: 1;" offset="0"/>
      <stop id="stop7" style="stop-color: rgb(0, 51, 153); stop-opacity: 1;" offset="1"/>
      <midPointStop id="midPointStop7" offset="0" style="stop-color:#06c"/>
      <midPointStop id="midPointStop9" offset="0.5" style="stop-color:#06c"/>
      <midPointStop id="midPointStop11" offset="1" style="stop-color:#039"/>
    </radialGradient>
    <linearGradient x1="85.759804" y1="12.79" x2="85.759804" y2="44.681999" id="lg1" gradientUnits="userSpaceOnUse" spreadMethod="pad">
      <stop id="stop10" style="stop-color: rgb(255, 255, 255); stop-opacity: 1;" offset="0"/>
      <stop id="stop12" style="stop-color: rgb(13, 54, 146); stop-opacity: 1;" offset="1"/>
      <midPointStop id="midPointStop16" offset="0" style="stop-color:#fff"/>
      <midPointStop id="midPointStop18" offset="0.5" style="stop-color:#fff"/>
      <midPointStop id="midPointStop20" offset="1" style="stop-color:#0d3692"/>
    </linearGradient>
    <radialGradient cx="66.7061" cy="22.9419" r="59.340599" fx="66.7061" fy="22.9419" id="rg2" xlink:href="#rg1" gradientUnits="userSpaceOnUse" spreadMethod="pad"/>
    <linearGradient x1="85.759804" y1="12.79" x2="85.759804" y2="44.681999" id="lg2" xlink:href="#lg1" gradientUnits="userSpaceOnUse" spreadMethod="pad"/>
  </defs>
  <g transform="matrix(0.717138, 0, 0, 0.717442, -32.7937, 1.5)" id="g3215">
    <path d="M 50.789,40.843 C 50.789,62.13 68.107,79.449 89.393,79.449 C 110.682,79.449 128,62.13 128,40.843 C 128,19.556 110.682,2.238 89.394,2.238 C 68.107,2.238 50.789,19.556 50.789,40.843 z" id="p1" style="opacity: 0.36; fill: rgb(153, 153, 153);"/>
    <path d="M 47.123,38.605 C 47.123,59.892 64.441,77.21 85.728,77.21 C 107.016,77.21 124.333,59.892 124.333,38.605 C 124.333,17.318 107.016,0 85.728,0 C 64.441,0 47.123,17.318 47.123,38.605 z" id="p2" style="fill: rgb(0, 102, 204);"/>
    <path d="M 49.919,38.046 C 49.919,57.822 65.952,73.855 85.727,73.855 C 105.504,73.855 121.535,57.822 121.535,38.046 C 121.535,18.27 105.505,2.238 85.728,2.238 C 65.952,2.238 49.919,18.27 49.919,38.046 z" id="p3" style="fill: url(#rg2) rgb(0, 0, 0);"/>
    <path d="M 53.836,41.543 C 53.836,20.544 68.839,3.394 87.72,2.296 C 87.061,2.26 86.397,2.238 85.728,2.238 C 65.953,2.238 49.92,18.27 49.92,38.046 C 49.92,47.181 53.347,55.511 58.976,61.837 C 55.715,55.913 53.836,48.969 53.836,41.543 z" id="p4" style="opacity: 0.36; fill: rgb(255, 255, 255);"/>
    <path d="M 86.278,36.289 C 98.401,36.289 109.561,34.527 118.423,31.574 C 115.594,14.889 102.038,2.239 85.73,2.239 C 69.539,2.239 56.056,14.711 53.097,31.22 C 62.116,34.386 73.675,36.289 86.278,36.289 z" id="p5" style="opacity: 0.5; fill: url(#lg2) rgb(0, 0, 0);"/>
    <path d="M 91.36,57.105 C 91.36,61.594 91.36,64.207 95.767,64.207 L 95.767,65.676 L 75.687,65.676 L 75.687,64.207 C 80.177,64.207 80.177,61.595 80.177,57.105 L 80.177,37.188 C 80.177,32.862 80.177,29.924 75.687,29.924 L 75.687,28.455 L 91.36,28.455 L 91.36,57.105 z M 85.728,10.416 C 89.075,10.416 91.85,13.191 91.85,16.538 C 91.85,19.884 89.075,22.66 85.728,22.66 C 82.382,22.66 79.607,19.885 79.607,16.538 C 79.606,13.191 82.382,10.416 85.728,10.416 z" id="i" style="fill: rgb(255, 255, 255);"/>
  </g>
</svg>